<svg xmlns="http://www.w3.org/2000/svg" width="302" height="98" viewBox="0 0 302 98" role="img" aria-label="Late Company"><title>Late Company</title><g fill="#E9B86F"><path d="M6 84V35a18 18 0 0 1 36 0v49H6Zm7-7h22V35a11 11 0 0 0-22 0v42Z" fill-rule="evenodd"/><path d="M54 84V35a18 18 0 0 1 36 0v49H54Zm7-7h22V35a11 11 0 0 0-22 0v42Z" fill-rule="evenodd"/><path d="M10 47h28v6H10zM58 47h28v6H58zM21 19h6v31h-6zM69 19h6v31h-6z"/></g><g fill="#F4EBDD" font-family="Georgia, 'Times New Roman', serif" font-size="38" letter-spacing="-1.5"><text x="114" y="44">Late</text><text x="113" y="81">Company</text></g></svg>
