<svg xmlns="http://www.w3.org/2000/svg" width="330" height="292" viewBox="0 0 330 292" role="img" aria-label="Late Company stacked logo"><title>Late Company stacked logo</title><g transform="translate(117 8)"><g fill="#58313D"><path d="M6 84V35a18 18 0 0 1 36 0v49H6Zm7-7h22V35a11 11 0 0 0-22 0v42Z" fill-rule="evenodd"/><path d="M54 84V35a18 18 0 0 1 36 0v49H54Zm7-7h22V35a11 11 0 0 0-22 0v42Z" fill-rule="evenodd"/><path d="M10 47h28v6H10zM58 47h28v6H58zM21 19h6v31h-6zM69 19h6v31h-6z"/></g></g><g fill="#251820" font-family="Georgia, 'Times New Roman', serif" text-anchor="middle" letter-spacing="-3"><text x="165" y="179" font-size="74">Late</text><text x="165" y="247" font-size="67">Company</text></g></svg>
